<svg xmlns="http://www.w3.org/2000/svg" height="800" width="1200" viewBox="-84.975 -205.975 736.45 1235.85"><path d="M472.1 302.9c-5.9-4.3-12.9-9.5-16.1-12.6 1.7-2.9 4.7-7.4 7.4-11.2 15.6-22.7 45-65.5 45-126.8 0-35.2-12.8-73.3-43.8-102.6C433.6 20.4 384.7 0 312.9 0c-68.1 0-144.7 22.4-211 61.5-29.6 17.7-54.1 36.6-71.2 54.9-17.1 18.2-27 35.7-27 50.7 0 7.3 2.8 14 8.1 19.2 9.7 9.5 26.8 13.9 48.7 16.3 21.9 2.3 48.6 2.4 77.4 2.4h5.1c44.3 0 75.6 1.2 95.6 4.1 10 1.5 17.2 3.4 21.6 5.6 4.5 2.3 5.9 4.6 6 7.1.1 1-1.1 3.4-3.9 6.1-9.6 9.6-34.7 23.8-57.3 39.5-11.3 7.8-22 16.1-30 24.5-7.9 8.4-13.3 17-13.4 25.9v.4c.1 11.3 6.1 20.3 15.2 27.3 27.5 21.1 84.4 26.6 114.2 32 18.4 3.3 28.1 9.9 33.4 17 5.3 7.1 6.2 15.1 6.2 21.9 0 25.5-9.5 48-26.5 63.5-15.1 13.9-33.3 22.9-59.8 22.9h-3.2c.6-5.1.9-10.1.9-14.9 0-30-11.8-55.1-31.9-72.5-20-17.4-48.2-27.2-80.9-27.2-40.3 0-72.7 16.7-94.9 41.6C12.1 454.7.1 487.5 0 519.9c0 51 23.5 102.2 69.3 140.5 45.8 38.4 113.9 63.9 203.1 63.9 70.7 0 142-23.3 196-63.9 44.7-33.7 98.1-95 98.1-195.7 0-92.3-61.8-137.9-94.4-161.8m-281.4 6.5c9.9-9.9 30.3-23.8 45.5-33.5 14.9-9.6 28.3-18.2 38.2-26.7 9.8-8.6 16.2-17.3 16.2-27.4 0-7.9-3.1-15.2-8.9-21-10.4-10.2-28.8-15-51.8-17.6-23-2.5-50.6-2.6-79.2-2.6h-7.9c-23.6 0-42.4-.3-57.4-.9 20.8-8.1 45-21 71.3-35 42.7-22.8 89.9-48.1 134.4-59.4-10.3 11.7-16.9 24.9-17 36.3 0 2.8.9 5.8 3 8.1 2.2 2.3 5.6 3.9 10.2 3.9 7.9 0 16.8-3.1 27.1-6.3 13.9-4.6 30-9.8 47.7-9.8 15.4 0 32.1 3.9 49.9 15.8-11.8.8-21.5 4.2-27.5 9-6.6 5.1-8.2 10.8-8.1 14.8.1 6.5 4.6 11.5 10.3 18 9.2 10.3 21.1 23.8 21.2 45.6 0 15.9-6.1 32.8-15.1 45.7 0-.9.1-1.9.1-2.8 0-11.1-2.5-23.5-8.5-30.6-3.7-4.1-8.5-6.5-14-6.5-9.3.1-17.4 7.2-29.4 17.1-8.5 7-19.1 16-32.4 24.4-56.2 35.4-86.3 49.1-107.6 50.8-8.1.4-19.9.2-10.3-9.4zm51.5 216.5c31.6 0 58-9.6 78.4-28.3 21.8-19.8 34.2-49.5 34.2-81.4 0-15.3-4.8-28-13.5-37.8 47.1 11.3 96.1 35.5 123.3 71.9-12.2-4-20.7-5-29.4-5-8.8.1-15.8 9.3-15.8 19.8 0 5.5 2.1 11.7 4.6 19.5 3.9 12.1 9 27.7 9 46.3 0 17.2-4.3 36.9-17.8 58.9-.4-17.8-5.2-32-11.3-39.6-4.8-5.9-10-7.4-13.5-7.3-5.6 0-10 2.8-13.6 7-3.7 4.3-6.8 10-10.4 16.6-13 23.3-33.4 60.4-97.2 79.6 5.8-10 8.8-20.2 8.8-28.3 0-3.2-.5-6.2-1.5-8.7-1.9-4.9-6.2-7.8-11-7.8h-.1c-7 .3-15.1 2.5-24.5 5.2-14.7 4.1-32.5 9.1-52.1 9.1-20.3 0-42.5-5.3-65.3-22.6 7.9-1.2 14.9-4 20-8.3 4.2-3.6 6.8-8.3 6.8-13.2-.1-7.5-6-12.6-12.7-18.7-9.8-9.2-21.4-20-21.4-38.3 0-5.3 1-11.2 3.3-17.9 2.1 5.8 5.1 11 9 15.4 6 6.4 13.1 10.4 20.1 10.4 7.3.1 11.7-3.4 13.5-7.8 1.9-4.4 1.8-9.5 1.8-13.4 0-4.5 2.1-8.8 5.4-12 3.4-3.2 7.9-5.2 12.6-5.2 10.7 0 18.9 6 24.6 14.9 5.6 8.9 8.6 20.8 8.6 31.9 0 6.9-1.1 13.5-3.4 19l-2.4 5.9 5.1-3.9c9.6-7.5 17.1-18.1 20.6-25.8 2.1-.1 4.7-.1 7.2-.1zM33.3 174.3c-3.3-2-5.4-4.1-5.4-7.2 0-8.7 8.3-22.6 23.5-37.8 45.8-45.9 151.8-105 261.5-104.9 55.5 0 100.7 13.7 130.7 39.4 26 22.2 40.3 53.6 40.3 88.5 0 53.7-25.3 90.7-40.7 113.1-7.9 11.3-12.5 18-12.6 25.6 0 6 2.9 11 7.5 15.8 4.7 4.8 11.3 9.7 19.4 15.7 32 23.7 84.5 62.3 84.5 142.1 0 90.7-47.9 145.8-88.3 176.2-49.7 37.5-115.9 59-181.4 59-163.5-.1-248.1-91-248.1-180.1 0-26.5 9.9-53.5 27.9-73.8 18.1-20.3 44.2-34 77-34h.1c18.3 0 41.5 4.3 59.9 16.6s32.2 32.4 32.2 65v2.8c-1.6-3.7-3.9-7.7-7.1-11.6-6.6-8.1-17.2-15.3-32.8-15.3-17.6 0-32.5 14.4-32.5 31.6 0 3.2-.4 5.2-.8 6.2-.1.4-.3.6-.4.7-4.3-.1-9.4-3.1-13.4-8.9-4.1-5.9-7.1-14.7-7.1-25.9 0-2.2.1-4.6.4-7l.5-5.2-3.5 3.9c-16.5 18.4-22.5 35-22.5 49.4 0 23.5 15.8 40.2 25.2 48.9 1.7 1.6 3.8 3.5 5.5 5.2.8.9 1.5 1.7 2 2.3.2.3.4.6.5.8 0 .1.1.1.1.2-.1.9-1.9 3.1-6.2 4.8-4.7 2-12.2 3.5-23 3.5-3.7 0-7.9-.2-12.4-.6l-4.1-.4 2.6 3.2c31.3 37.3 65.9 47.5 95.9 47.5 22.1 0 41.8-5.5 56-9.5 6-1.7 12.7-4.2 16.4-4.2 1.6 0 2.2.4 2.5.8.3.4.7 1.4.6 2.8 0 4.3-2.5 12.2-6.8 20.3-4.3 8.1-10.3 16.6-16.9 22.6l-4 3.6 5.4-.7c91.5-11.8 122-64.8 137.1-92.1 2.5-4.6 4.9-8.8 7-11.8 2.1-3.1 4.1-4.6 4.6-4.4.8 0 2.3.8 3.8 3 4.5 6.7 8.3 23.4 8.3 40.8 0 7.5-.7 15.3-2.3 22.4l-1.1 5.3 4-3.7c34.5-32 44-65.6 44-93.6 0-21.4-5.5-39.6-9.4-51.3-2.1-6.5-3.9-12.3-3.9-15.1 0-2.3.4-3.5.9-4.1.4-.6 1.2-1 2.7-1.4 14.6 0 31.9 5.2 52.7 15.1l4.1 1.9-1.8-4.1c-28.2-66-91-94.3-152.1-109.7-30.6-7.7-60.9-12.3-86.4-16.7-18.5-3.2-34.6-6.4-46.3-10.6-1.9-.8-3.9-1.7-5.7-2.6 34.9-4.4 77.1-29 114.6-53.1 14.1-9 25-18.2 33.7-25.5 4.6-3.8 8.8-7.3 12.4-9.8 3.5-2.6 6.6-4 7.9-3.9 1.3 0 2.3.5 3.5 1.8 3.4 3.7 5.5 13.9 5.4 25.1 0 9-1.2 18.6-3.4 26.4l-1.2 4.3 3.8-2.4c29.7-19.1 44-48.1 44-75.2 0-27.2-15.1-44.2-24.8-55.1-1.5-1.7-3.2-3.7-4.6-5.4-1.1-1.4-2-2.8-2.3-3.3.2-.7 1-2.1 2.7-3.3 6.2-4.7 16.9-7.6 29.2-7.5 6.3 0 13 .7 19.8 2.3l4.7 1.1-2.9-3.8c-25.6-32.9-55-42.3-81.2-42.3-20.6 0-39.3 5.8-52.9 10.2-6.6 2.2-15.8 5-19.8 5-.5 0-.9 0-1.1-.1.1-4.8 3.5-12.9 10.1-21.4 6.7-8.8 16.6-18.2 29.3-25.8l4.6-2.8-5.4-.4c-2.3-.2-4.7-.3-7.2-.3-52.6.1-120.5 38.3-170.6 64.1C118.6 148 53 186 33.3 174.3zm-11 591.6v-12.8h57v12.8H58.5v56.7H43.2v-56.7H22.3m75.5-12.8v26.2h.3c1.8-2.9 4-5.1 6.7-6.4 2.7-1.3 5.4-2 8-2 3.7 0 6.7.5 9.1 1.5 2.4 1 4.2 2.4 5.6 4.2 1.4 1.8 2.3 4 2.9 6.5.6 2.5.8 5.4.8 8.5v31h-13.8v-28.5c0-4.1-.6-7.3-1.9-9.3-1.3-2-3.6-3.1-6.9-3.1-3.8 0-6.5 1.1-8.2 3.4-1.7 2.2-2.5 5.9-2.5 11v26.4H84v-69.6h13.8m53.1 19.4v9.3h.2c.6-1.5 1.5-3 2.6-4.3 1.1-1.3 2.4-2.5 3.8-3.4 1.4-1 3-1.7 4.6-2.2 1.6-.5 3.3-.8 5.1-.8.9 0 1.9.2 3 .5v12.9c-.6-.1-1.4-.2-2.3-.3-.9-.1-1.8-.1-2.6-.1-2.5 0-4.7.4-6.4 1.3-1.7.9-3.2 2-4.2 3.5-1.1 1.5-1.8 3.2-2.3 5.1-.5 2-.7 4.1-.7 6.3v22.7h-13.8v-50.4h13m37.8 38.1c2.1 2 5.1 3 9 3 2.8 0 5.2-.7 7.2-2.1 2-1.4 3.3-2.9 3.7-4.4h12.1c-1.9 6-4.9 10.4-9 12.9-4 2.6-8.9 3.9-14.6 3.9-4 0-7.5-.6-10.7-1.9-3.2-1.3-5.9-3.1-8.1-5.4-2.2-2.3-3.9-5.1-5.1-8.4-1.2-3.3-1.8-6.8-1.8-10.7 0-3.8.6-7.3 1.8-10.5 1.2-3.3 3-6.1 5.3-8.4 2.3-2.4 5-4.2 8.1-5.6 3.1-1.4 6.6-2.1 10.5-2.1 4.3 0 8 .8 11.2 2.5 3.2 1.7 5.8 3.9 7.8 6.7 2.1 2.8 3.5 6 4.5 9.6.9 3.6 1.2 7.3 1 11.2h-36.3c.1 4.5 1.3 7.8 3.4 9.7m15.6-26.5c-1.6-1.8-4.2-2.7-7.5-2.7-2.2 0-4.1.4-5.5 1.1-1.4.8-2.6 1.7-3.5 2.8-.9 1.1-1.5 2.3-1.8 3.5-.4 1.2-.6 2.3-.6 3.3h22.5c-.8-3.5-2-6.1-3.6-8zm38.4 26.5c2.1 2 5.1 3 9 3 2.8 0 5.2-.7 7.2-2.1 2-1.4 3.2-2.9 3.7-4.4h12.2c-1.9 6-4.9 10.4-9 12.9-4 2.6-8.9 3.9-14.6 3.9-4 0-7.5-.6-10.7-1.9-3.2-1.3-5.9-3.1-8.1-5.4-2.2-2.3-3.9-5.1-5.1-8.4-1.2-3.3-1.8-6.8-1.8-10.7 0-3.8.6-7.3 1.9-10.5 1.2-3.3 3-6.1 5.3-8.4 2.3-2.4 5-4.2 8.1-5.6 3.1-1.4 6.6-2.1 10.5-2.1 4.3 0 8 .8 11.2 2.5 3.2 1.7 5.8 3.9 7.8 6.7 2.1 2.8 3.5 6 4.4 9.6.9 3.6 1.2 7.3 1 11.2h-36.3c.1 4.5 1.2 7.8 3.3 9.7m15.7-26.5c-1.6-1.8-4.2-2.7-7.5-2.7-2.2 0-4 .4-5.5 1.1-1.5.8-2.6 1.7-3.5 2.8-.9 1.1-1.5 2.3-1.9 3.5-.4 1.2-.6 2.3-.6 3.3h22.5c-.7-3.5-1.9-6.1-3.5-8zm24.2 23.6h15.3v15h-15.3zm47.5-26.3c-2.2 0-4.1.5-5.5 1.5-1.5 1-2.7 2.3-3.7 3.9-.9 1.6-1.6 3.4-2 5.3-.4 1.9-.6 3.8-.6 5.7 0 1.8.2 3.7.6 5.6.4 1.9 1 3.6 1.9 5.1.9 1.5 2.1 2.8 3.6 3.7 1.5 1 3.3 1.5 5.5 1.5 3.3 0 5.9-.9 7.7-2.8 1.8-1.8 2.9-4.3 3.4-7.5h13.3c-.9 6.7-3.5 11.8-7.8 15.3s-9.8 5.3-16.5 5.3c-3.8 0-7.2-.6-10.4-1.9-3.1-1.3-5.8-3-8-5.3s-3.9-5-5.2-8.1c-1.2-3.2-1.8-6.6-1.8-10.4 0-3.9.6-7.5 1.7-10.9 1.1-3.3 2.8-6.2 5-8.7 2.2-2.4 4.9-4.3 8.1-5.7 3.2-1.4 6.8-2.1 10.9-2.1 3 0 5.9.4 8.6 1.2 2.8.8 5.2 2 7.4 3.6s4 3.6 5.3 5.9c1.3 2.4 2.1 5.2 2.3 8.4h-13.5c-.9-5.7-4.4-8.6-10.3-8.6m30.3 5.2c1.2-3.3 3-6.1 5.3-8.4 2.3-2.3 5-4.1 8.2-5.4 3.2-1.3 6.8-1.9 10.7-1.9 4 0 7.6.6 10.8 1.9 3.2 1.3 6 3 8.2 5.4 2.3 2.3 4 5.1 5.3 8.4 1.2 3.3 1.9 6.9 1.9 11 0 4-.6 7.7-1.9 10.9-1.2 3.3-3 6-5.3 8.3-2.3 2.3-5 4.1-8.2 5.3-3.2 1.2-6.8 1.8-10.8 1.8-4 0-7.5-.6-10.7-1.8-3.2-1.3-5.9-3-8.2-5.3-2.3-2.3-4-5.1-5.3-8.3-1.2-3.2-1.9-6.9-1.9-10.9.1-4 .7-7.7 1.9-11m12.6 16.9c.4 1.9 1.1 3.6 2 5.2.9 1.5 2.2 2.7 3.7 3.6 1.6.9 3.5 1.4 5.8 1.4s4.3-.5 5.9-1.4c1.6-.9 2.9-2.1 3.8-3.6 1-1.5 1.6-3.3 2-5.2.4-1.9.6-3.9.6-5.9 0-2-.2-4-.6-6-.4-1.9-1.1-3.7-2-5.1-.9-1.5-2.2-2.7-3.8-3.7-1.6-1-3.6-1.4-5.9-1.4-2.3 0-4.3.5-5.8 1.4-1.6 1-2.8 2.2-3.7 3.7-.9 1.5-1.6 3.2-2 5.1-.4 2-.6 3.9-.6 6 0 2 .2 4 .6 5.9zm43.9 4.2h15.3v15h-15.3zm57.7 15v-7h-.3c-1.8 2.9-4 5-6.8 6.3-2.8 1.3-5.7 2-8.6 2-3.7 0-6.8-.5-9.1-1.5-2.4-1-4.2-2.3-5.6-4.1-1.4-1.8-2.3-4-2.9-6.5-.6-2.6-.8-5.4-.8-8.5v-31h13.8v28.4c0 4.2.6 7.3 2 9.3 1.3 2 3.6 3.1 6.9 3.1 3.8 0 6.5-1.1 8.2-3.4 1.7-2.2 2.5-5.9 2.5-11.1v-26.4h13.8v50.4h-13.1m33.7-69.5v37.3l17.4-18.1h16.4l-19 18.5 21.1 31.8h-16.7l-13.9-22.5-5.3 5.2v17.3h-13.9v-69.5h13.9"/></svg>